<svg version="1.1" xmlns="http://www.w3.org/2000/svg" viewBox="0 0 457.391 457.391" xml:space="preserve" fill="#000" transform="rotate(90)">
  <path d="M435.089 237.692a14.997 14.997 0 00-2.075-2.604L312.225 114.299a7.824 7.824 0 00-13.357 5.532v46.609a7.824 7.824 0 01-7.824 7.824H35.002c-8.285 0-15.002 6.717-15.002 15.002v96.86c0 8.285 6.717 15.002 15.002 15.002h256.041a7.824 7.824 0 017.824 7.824v46.608a7.824 7.824 0 0013.357 5.533l120.789-120.789a15.055 15.055 0 002.076-2.612z" fill="#e8e8e8"/>
  <path d="M306.69 95.007a7.82 7.82 0 015.534 2.292l120.789 120.789c5.859 5.859 5.859 15.357 0 21.216L312.225 360.093a7.822 7.822 0 01-8.527 1.696 7.824 7.824 0 01-4.83-7.229v-46.608a7.824 7.824 0 00-7.824-7.824H35.002c-8.285 0-15.002-6.717-15.002-15.002v-112.86c0-8.285 6.717-15.002 15.002-15.002h256.041a7.824 7.824 0 007.824-7.824v-46.608a7.824 7.824 0 017.823-7.825m0-20a27.69 27.69 0 00-10.646 2.118 27.742 27.742 0 00-17.176 25.706v34.432H35.002C15.702 137.264 0 152.966 0 172.266v112.86c0 19.3 15.702 35.002 35.002 35.002h243.866v34.432a27.742 27.742 0 0017.176 25.706 27.68 27.68 0 0010.646 2.118c7.433 0 14.421-2.895 19.677-8.15l120.789-120.789c13.647-13.647 13.647-35.853 0-49.5L326.367 83.157c-5.256-5.256-12.244-8.15-19.677-8.15z" fill="#185adb"/>
</svg>
